<svg xmlns="http://www.w3.org/2000/svg" x="0px" y="0px"
width="64" height="64"
viewBox="0 0 172 172"
style=" fill:#000000;"><g fill="none" fill-rule="nonzero" stroke="none" stroke-width="1" stroke-linecap="butt" stroke-linejoin="miter" stroke-miterlimit="10" stroke-dasharray="" stroke-dashoffset="0" font-family="none" font-weight="none" font-size="none" text-anchor="none" style="mix-blend-mode: normal"><path d="M0,172v-172h172v172z" fill="none"></path><g><path d="M2.65391,86c0,-46.02344 37.32266,-83.34609 83.34609,-83.34609c46.02344,0 83.34609,37.32266 83.34609,83.34609c0,46.02344 -37.32266,83.34609 -83.34609,83.34609c-46.02344,0 -83.34609,-37.32266 -83.34609,-83.34609z" fill="#5558dd"></path><path d="M88.82188,98.46328c0,3.7625 3.05703,6.85312 6.85312,6.85312h51.86875c3.7625,0 6.85312,-3.05703 6.85312,-6.85312v-30.20078c0,-3.7625 -3.05703,-6.85312 -6.85312,-6.85312h-51.90234c-3.7625,0 -6.85313,3.05703 -6.85313,6.85312v30.20078z" fill="#ffffff"></path><path d="M145.96484,114.4875c0.5375,0.5375 1.41094,0.5375 1.94844,0l0.10078,-11.18672h-15.05c-0.5375,0.5375 -0.5375,1.41094 0,1.94844z" fill="#ffffff"></path><path d="M131.11641,83.91719c0,2.45234 1.98203,4.43438 4.43437,4.43438c2.45234,0 4.43437,-1.98203 4.43437,-4.43438c0,-2.45234 -1.98203,-4.43437 -4.43437,-4.43437c-2.41875,0 -4.43437,1.98203 -4.43437,4.43437zM117.20859,83.91719c0,2.45234 1.98203,4.43438 4.43438,4.43438c2.45234,0 4.43437,-1.98203 4.43437,-4.43438c0,-2.45234 -1.98203,-4.43437 -4.43437,-4.43437c-2.45234,0 -4.43438,1.98203 -4.43438,4.43437z" fill="#000000"></path><g fill="#000000"><path d="M103.60313,83.91719c0,2.45234 1.98203,4.43438 4.43438,4.43438c2.45234,0 4.43437,-1.98203 4.43437,-4.43438c0,-2.45234 -1.98203,-4.43437 -4.43437,-4.43437c-2.45234,0 -4.43438,1.98203 -4.43438,4.43437z"></path></g><g><path d="M83.98438,98.46328c0,3.7625 -3.05703,6.85312 -6.85313,6.85312h-51.83516c-3.7625,0 -6.85313,-3.05703 -6.85313,-6.85312v-30.20078c0,-3.7625 3.05703,-6.85312 6.85313,-6.85312h51.86875c3.7625,0 6.85312,3.05703 6.85312,6.85312v30.20078z" fill="#000000"></path><path d="M26.84141,114.4875c-0.5375,0.5375 -1.41094,0.5375 -1.94844,0l-0.10078,-11.18672h15.05c0.5375,0.5375 0.5375,1.41094 0,1.94844z" fill="#000000"></path><path d="M41.68984,83.91719c0,2.45234 -1.98203,4.43438 -4.43438,4.43438c-2.45234,0 -4.43438,-1.98203 -4.43438,-4.43438c0,-2.45234 1.98203,-4.43437 4.43438,-4.43437c2.45234,0 4.43438,1.98203 4.43438,4.43437zM55.59766,83.91719c0,2.45234 -1.98203,4.43438 -4.43437,4.43438c-2.45234,0 -4.43437,-1.98203 -4.43437,-4.43438c0,-2.45234 1.98203,-4.43437 4.43437,-4.43437c2.45234,0 4.43437,1.98203 4.43437,4.43437z" fill="#ffffff"></path><g fill="#ffffff"><path d="M69.23672,83.91719c0,2.45234 -1.98203,4.43438 -4.43437,4.43438c-2.45234,0 -4.43438,-1.98203 -4.43438,-4.43438c0,-2.45234 1.98203,-4.43437 4.43438,-4.43437c2.41875,0 4.43437,1.98203 4.43437,4.43437z"></path></g></g></g></g></svg>