<svg xmlns="http://www.w3.org/2000/svg" x="0px" y="0px"
width="64" height="64"
viewBox="0 0 172 172"
style=" fill:#000000;"><g fill="none" fill-rule="nonzero" stroke="none" stroke-width="1" stroke-linecap="butt" stroke-linejoin="miter" stroke-miterlimit="10" stroke-dasharray="" stroke-dashoffset="0" font-family="none" font-weight="none" font-size="none" text-anchor="none" style="mix-blend-mode: normal"><path d="M0,172v-172h172v172z" fill="none"></path><g><path d="M2.65391,86c0,-46.02344 37.32266,-83.34609 83.34609,-83.34609c46.02344,0 83.34609,37.32266 83.34609,83.34609c0,46.02344 -37.32266,83.34609 -83.34609,83.34609c-46.02344,0 -83.34609,-37.32266 -83.34609,-83.34609z" fill="#5558dd"></path><path d="M95.43984,103.97266c0,2.18359 -1.78047,3.99766 -3.99766,3.99766h-45.75469c-2.18359,0 -3.99766,-1.78047 -3.99766,-3.99766v-63.72734c0,-2.18359 1.78047,-3.99766 3.99766,-3.99766h45.78828c2.18359,0 3.99766,1.78047 3.99766,3.99766v63.72734z" fill="#e7e7e7"></path><path d="M89.86328,53.61563c0,0.67188 -0.57109,1.24297 -1.24297,1.24297h-39.775c-0.67187,0 -1.24297,-0.57109 -1.24297,-1.24297v0c0,-0.67187 0.57109,-1.24297 1.24297,-1.24297h39.775c0.67188,0 1.24297,0.57109 1.24297,1.24297zM89.86328,60.13281c0,0.67188 -0.57109,1.24297 -1.24297,1.24297h-39.775c-0.67187,0 -1.24297,-0.57109 -1.24297,-1.24297v0c0,-0.67187 0.57109,-1.24297 1.24297,-1.24297h39.775c0.67188,0 1.24297,0.57109 1.24297,1.24297zM89.86328,47.09844c0,0.67188 -0.57109,1.24297 -1.24297,1.24297h-39.775c-0.67187,0 -1.24297,-0.57109 -1.24297,-1.24297v0c0,-0.67187 0.57109,-1.24297 1.24297,-1.24297h39.775c0.67188,0 1.24297,0.57109 1.24297,1.24297zM89.86328,66.68359c0,0.70547 -0.57109,1.24297 -1.24297,1.24297h-39.775c-0.67187,0 -1.24297,-0.57109 -1.24297,-1.24297v0c0,-0.67187 0.57109,-1.24297 1.24297,-1.24297h39.775c0.67188,0 1.24297,0.5375 1.24297,1.24297zM89.86328,72.89844c0,0.67188 -0.57109,1.24297 -1.24297,1.24297h-39.775c-0.67187,0 -1.24297,-0.57109 -1.24297,-1.24297v0c0,-0.67187 0.57109,-1.24297 1.24297,-1.24297h39.775c0.67188,0 1.24297,0.5375 1.24297,1.24297zM89.86328,79.41563c0,0.67188 -0.57109,1.24297 -1.24297,1.24297h-39.775c-0.67187,0 -1.24297,-0.57109 -1.24297,-1.24297v0c0,-0.67187 0.57109,-1.24297 1.24297,-1.24297h39.775c0.67188,0 1.24297,0.5375 1.24297,1.24297z" fill="#c9c9c8"></path><g><path d="M136.89453,115.12578c0,2.18359 -1.78047,3.96406 -3.99766,3.96406h-45.75469c-2.18359,0 -3.99766,-1.78047 -3.99766,-3.96406v-63.69375c0,-2.18359 1.78047,-3.99766 3.99766,-3.99766h45.78828c2.18359,0 3.99766,1.78047 3.99766,3.99766v63.69375z" fill="#f3f4f5"></path><path d="M131.28438,64.80234c0,0.67188 -0.57109,1.24297 -1.24297,1.24297h-39.74141c-0.67187,0 -1.24297,-0.57109 -1.24297,-1.24297v0c0,-0.67187 0.57109,-1.24297 1.24297,-1.24297h39.775c0.67187,0 1.20937,0.57109 1.20937,1.24297zM131.28438,71.31953c0,0.67188 -0.57109,1.24297 -1.24297,1.24297h-39.74141c-0.67187,0 -1.24297,-0.57109 -1.24297,-1.24297v0c0,-0.67187 0.57109,-1.24297 1.24297,-1.24297h39.775c0.67187,0 1.20937,0.57109 1.20937,1.24297zM131.28438,58.28516c0,0.67188 -0.57109,1.24297 -1.24297,1.24297h-39.74141c-0.67187,0 -1.24297,-0.57109 -1.24297,-1.24297v0c0,-0.67187 0.57109,-1.24297 1.24297,-1.24297h39.775c0.67187,0 1.20937,0.57109 1.20937,1.24297zM131.28438,77.87031c0,0.70547 -0.57109,1.24297 -1.24297,1.24297h-39.74141c-0.67187,0 -1.24297,-0.57109 -1.24297,-1.24297v0c0,-0.67187 0.57109,-1.24297 1.24297,-1.24297h39.775c0.67187,0 1.20937,0.5375 1.20937,1.24297zM131.28438,84.08516c0,0.67188 -0.57109,1.24297 -1.24297,1.24297h-39.74141c-0.67187,0 -1.24297,-0.57109 -1.24297,-1.24297v0c0,-0.67187 0.57109,-1.24297 1.24297,-1.24297h39.775c0.67187,0 1.20937,0.5375 1.20937,1.24297zM131.28438,90.60234c0,0.67188 -0.57109,1.24297 -1.24297,1.24297h-39.74141c-0.67187,0 -1.24297,-0.57109 -1.24297,-1.24297v0c0,-0.67187 0.57109,-1.24297 1.24297,-1.24297h39.775c0.67187,0 1.20937,0.5375 1.20937,1.24297z" fill="#c9c9c8"></path></g><g><path d="M66.54922,65.84375c-2.18359,0 -3.99766,1.78047 -3.99766,3.99766v63.69375c0,2.18359 1.78047,3.99766 3.99766,3.99766h45.78828c2.18359,0 3.99766,-1.78047 3.99766,-3.99766v-49.24844l-19.21562,-18.44297z" fill="#f5f5f5"></path><path d="M116.30156,84.28672h-15.21797c-2.18359,0 -3.99766,-1.78047 -3.99766,-3.99766v-14.44531z" fill="#e1e1e1"></path><path d="M110.69141,89.72891c0,0.67188 -0.57109,1.24297 -1.24297,1.24297h-39.74141c-0.67187,0 -1.24297,-0.57109 -1.24297,-1.24297v0c0,-0.67187 0.57109,-1.24297 1.24297,-1.24297h39.775c0.67188,0 1.20938,0.5375 1.20938,1.24297zM110.69141,96.24609c0,0.67188 -0.57109,1.24297 -1.24297,1.24297h-39.74141c-0.67187,0 -1.24297,-0.57109 -1.24297,-1.24297v0c0,-0.67187 0.57109,-1.24297 1.24297,-1.24297h39.775c0.67188,0 1.20938,0.57109 1.20938,1.24297zM110.69141,102.46094c0,0.67188 -0.57109,1.24297 -1.24297,1.24297h-39.74141c-0.67187,0 -1.24297,-0.57109 -1.24297,-1.24297v0c0,-0.67187 0.57109,-1.24297 1.24297,-1.24297h39.775c0.67188,0 1.20938,0.57109 1.20938,1.24297zM110.69141,108.97813c0,0.67188 -0.57109,1.24297 -1.24297,1.24297h-39.74141c-0.67187,0 -1.24297,-0.57109 -1.24297,-1.24297v0c0,-0.67187 0.57109,-1.24297 1.24297,-1.24297h39.775c0.67188,0 1.20938,0.57109 1.20938,1.24297zM90.50156,114.25234h-20.82812c-0.67187,0 -1.24297,0.57109 -1.24297,1.24297c0,0.67188 0.57109,1.24297 1.24297,1.24297h20.82813c0.67188,0 1.24297,-0.57109 1.24297,-1.24297c0,-0.67187 -0.5375,-1.24297 -1.24297,-1.24297z" fill="#c9c9c8"></path></g></g></g></svg>